<?xml version="1.0" standalone="no"?>
<!DOCTYPE svg PUBLIC "-//W3C//DTD SVG 20010904//EN"
 "http://www.w3.org/TR/2001/REC-SVG-20010904/DTD/svg10.dtd">
<svg version="1.0" xmlns="http://www.w3.org/2000/svg"
 width="960.000000pt" height="960.000000pt" viewBox="0 0 960.000000 960.000000"
 preserveAspectRatio="xMidYMid meet">
<metadata>
Created by potrace 1.14, written by Peter Selinger 2001-2017
</metadata>
<g transform="translate(0.000000,960.000000) scale(0.100000,-0.100000)"
fill="#000000" stroke="none">
<path d="M6060 9501 c0 -4 -8 -16 -18 -27 -23 -25 -536 -712 -540 -722 -3 -9
87 -50 129 -59 16 -3 29 -9 29 -14 0 -5 8 -9 18 -9 10 0 22 -3 26 -7 4 -5 11
-8 14 -9 4 0 27 -9 52 -21 48 -21 80 -35 93 -38 4 -2 10 -4 15 -5 4 -1 10 -2
15 -1 4 0 7 -3 7 -8 0 -5 10 -12 23 -16 12 -4 25 -8 30 -10 18 -6 22 -7 30 -6
4 0 7 -3 7 -7 0 -5 18 -15 40 -22 22 -7 40 -17 40 -22 0 -4 4 -8 10 -8 5 0 33
-14 62 -31 29 -18 59 -32 66 -32 6 0 12 -4 12 -8 0 -4 18 -16 39 -27 67 -35
86 -47 93 -57 4 -5 8 -6 8 -2 0 4 15 -3 33 -17 19 -15 39 -26 45 -26 7 0 12
-4 12 -9 0 -5 15 -16 33 -24 18 -9 41 -25 52 -37 10 -11 22 -20 27 -20 5 0 14
-5 21 -10 7 -6 55 -43 107 -81 91 -68 174 -137 287 -236 29 -26 56 -49 60 -52
5 -3 19 -19 31 -35 12 -16 22 -25 22 -21 0 9 136 -130 222 -226 84 -95 158
-187 158 -196 0 -5 9 -15 20 -23 11 -8 20 -20 20 -27 0 -6 6 -16 14 -20 7 -4
31 -33 52 -63 21 -30 42 -56 46 -58 5 -2 8 -8 8 -14 0 -6 13 -27 30 -48 16
-20 27 -40 23 -43 -3 -4 2 -9 11 -13 9 -3 16 -10 16 -15 0 -5 16 -31 36 -59
20 -27 32 -50 27 -50 -4 0 -3 -4 3 -8 14 -9 86 -138 150 -267 27 -55 52 -102
55 -105 7 -6 108 -238 113 -260 4 -14 39 -107 46 -120 4 -9 11 -31 15 -50 4
-19 12 -40 17 -47 5 -7 7 -17 3 -23 -3 -5 -1 -10 4 -10 6 0 11 -8 11 -18 0
-10 5 -23 12 -30 7 -7 9 -12 5 -12 -3 0 -2 -12 4 -27 6 -16 12 -35 14 -43 2
-8 9 -28 16 -45 6 -16 13 -37 14 -45 1 -8 10 -49 19 -91 10 -42 19 -84 21 -95
2 -10 4 -19 6 -19 1 0 2 -11 4 -25 1 -14 7 -51 14 -82 7 -32 13 -71 13 -88 1
-16 4 -30 8 -30 3 0 7 -19 8 -42 4 -67 9 -120 16 -165 4 -23 8 -71 8 -107 1
-36 4 -66 7 -66 4 0 7 -103 6 -230 0 -126 -3 -230 -7 -230 -5 0 -7 -33 -6 -73
1 -40 -1 -77 -4 -83 -4 -5 -7 -34 -9 -64 -1 -30 -5 -59 -8 -65 -3 -5 -6 -26
-7 -45 -3 -46 -14 -111 -21 -130 -3 -8 -5 -25 -4 -37 1 -13 -1 -28 -6 -35 -4
-7 -9 -22 -10 -33 -6 -48 -26 -140 -32 -145 -6 -5 -10 -30 -14 -77 -1 -13 -5
-23 -9 -23 -5 0 -8 -8 -8 -17 0 -15 -67 -220 -93 -283 -5 -14 -11 -29 -13 -35
-8 -31 -30 -81 -37 -86 -5 -3 -8 -10 -8 -15 1 -5 -6 -27 -16 -49 -9 -22 -17
-42 -18 -45 -1 -3 -14 -32 -29 -65 -16 -33 -32 -69 -37 -80 -5 -11 -22 -42
-39 -70 -16 -27 -43 -78 -61 -113 -17 -34 -35 -62 -41 -62 -6 0 -8 -6 -5 -14
3 -8 3 -16 -1 -18 -4 -2 -29 -37 -57 -78 -27 -41 -52 -77 -56 -80 -3 -3 -12
-16 -19 -29 -6 -13 -26 -43 -44 -66 -17 -23 -38 -52 -46 -64 -18 -27 -59 -79
-80 -101 -8 -8 -28 -31 -43 -50 -147 -180 -337 -366 -566 -553 -12 -9 -23 -17
-26 -17 -3 0 -13 -8 -23 -18 -35 -32 -62 -52 -62 -44 0 4 -5 -1 -11 -10 -5
-10 -14 -18 -19 -18 -6 0 -19 -8 -29 -18 -33 -30 -50 -42 -58 -43 -5 -1 -27
-14 -50 -30 -23 -16 -44 -29 -48 -29 -8 0 -69 -43 -73 -52 -2 -5 -9 -8 -16 -8
-7 0 -22 -9 -34 -20 -12 -12 -22 -18 -22 -16 0 3 -21 -7 -47 -22 -27 -15 -75
-41 -108 -57 -33 -17 -63 -34 -67 -40 -4 -5 -8 -7 -8 -2 0 4 -11 0 -25 -9 -13
-8 -29 -13 -34 -10 -5 4 -14 -1 -19 -10 -5 -9 -11 -15 -13 -14 -9 3 -57 -19
-64 -30 -3 -5 -10 -8 -15 -5 -5 3 -11 1 -15 -5 -4 -6 -11 -8 -16 -5 -5 4 -9 1
-9 -4 0 -6 -4 -11 -9 -11 -5 0 -22 -5 -38 -12 -15 -6 -30 -12 -33 -13 -18 -4
-87 -29 -95 -34 -5 -3 -16 -7 -22 -8 -59 -13 -129 -36 -140 -45 -7 -6 -13 -8
-13 -5 0 3 -24 -3 -53 -13 -29 -10 -64 -21 -78 -23 -13 -2 -31 -6 -39 -10 -26
-9 -104 -29 -125 -30 -11 -1 -24 -5 -30 -8 -5 -4 -32 -10 -58 -13 -27 -4 -59
-10 -70 -13 -12 -3 -38 -6 -57 -8 -19 -1 -42 -5 -50 -8 -15 -6 -61 -11 -185
-22 -109 -9 -599 -12 -610 -4 -6 5 -37 7 -68 6 -31 -2 -57 0 -57 4 0 6 -37 12
-150 21 -19 2 -41 7 -47 11 -7 5 -13 6 -13 4 0 -4 -50 5 -169 29 -14 3 -29 8
-35 12 -6 3 -20 8 -31 9 -33 5 -169 44 -188 54 -10 5 -22 7 -27 4 -6 -4 -10
-1 -10 4 0 6 -3 10 -7 9 -13 -2 -67 14 -80 25 -7 5 -13 6 -13 1 0 -4 -5 -3
-11 3 -6 6 -18 9 -25 6 -8 -3 -14 0 -14 6 0 6 -8 11 -18 11 -10 0 -22 3 -26 7
-3 4 -17 8 -29 10 -12 2 -23 8 -25 13 -2 6 -10 10 -17 10 -16 0 -109 43 -130
60 -8 7 -15 10 -15 6 0 -3 -20 6 -45 20 -25 13 -45 21 -45 17 0 -4 -4 -3 -8 3
-4 6 -45 30 -92 54 -93 48 -161 89 -172 105 -5 7 -8 7 -8 0 0 -7 -3 -7 -8 0
-4 6 -27 24 -52 40 -25 17 -54 38 -64 47 -11 10 -23 18 -27 18 -3 0 -24 14
-45 30 -22 17 -52 40 -68 53 -17 12 -42 33 -56 47 -14 14 -28 25 -31 25 -16 0
-359 328 -359 344 0 3 -23 31 -50 61 -70 76 -79 87 -130 155 -25 33 -49 65
-55 72 -5 7 -15 18 -21 25 -5 7 -10 15 -10 18 1 3 -5 12 -12 20 -33 39 -202
311 -202 326 0 6 -59 125 -85 174 -11 19 -20 37 -20 40 0 3 -9 20 -18 38 -10
17 -14 32 -11 32 4 0 0 8 -9 18 -10 10 -14 22 -10 25 3 4 1 7 -5 7 -7 0 -11 3
-10 8 1 4 -4 23 -11 42 -16 41 -14 33 -31 90 -8 25 -16 47 -20 50 -3 3 -5 10
-5 15 -1 12 -23 93 -32 115 -8 20 -14 41 -17 62 -1 10 -5 21 -9 24 -4 4 -7 19
-7 34 0 15 -3 30 -7 34 -4 3 -8 12 -9 19 -6 37 -13 67 -24 107 -7 25 -14 56
-16 70 -2 14 -6 43 -9 65 -3 22 -8 60 -11 85 -2 25 -7 56 -10 70 -15 61 -20
463 -9 610 8 105 16 174 22 190 3 8 7 31 8 50 2 19 11 67 20 105 8 39 17 79
19 90 2 11 12 47 22 80 10 33 18 65 19 70 1 6 3 13 5 18 1 4 3 10 4 15 1 4 10
34 21 67 10 33 19 65 21 70 1 6 8 24 15 40 7 17 13 33 14 38 2 4 3 8 5 10 1 1
3 10 5 20 2 10 13 36 24 57 11 22 18 40 16 40 -3 0 1 13 10 30 8 16 15 33 14
36 0 4 3 10 8 13 4 3 20 32 35 64 15 31 33 57 38 57 6 0 9 4 5 9 -3 5 8 32 25
60 16 28 27 51 24 51 -2 0 0 6 6 13 6 6 30 41 54 77 84 128 151 225 163 238 7
8 26 30 41 50 64 85 329 357 406 417 21 17 46 37 56 45 36 30 56 46 95 74 22
17 43 35 47 40 5 7 8 7 8 1 0 -6 3 -6 8 0 8 12 66 50 70 47 1 -2 9 3 17 10 33
30 43 37 48 32 2 -2 10 2 17 11 7 8 17 15 22 15 5 0 14 5 21 10 26 22 85 57
152 90 39 19 73 39 76 43 3 5 8 8 10 7 2 -1 17 3 32 9 16 6 33 11 38 11 5 0 9
5 9 11 0 6 7 9 15 5 8 -3 15 -1 15 4 0 6 3 9 8 8 8 -1 59 17 84 32 10 6 25 10
33 10 8 0 15 5 15 12 0 6 3 9 6 5 4 -3 24 3 45 13 21 11 47 20 59 20 11 0 20
5 20 11 0 5 5 7 10 4 6 -3 16 -3 23 2 13 8 23 11 67 20 16 3 30 8 30 12 0 4
10 8 23 9 39 3 62 8 75 16 7 4 16 6 18 3 3 -3 25 1 49 8 24 8 46 11 48 8 3 -3
11 -1 19 3 7 4 24 9 38 11 84 9 127 15 140 20 8 3 42 5 75 5 33 0 64 3 70 7
10 7 354 5 445 -3 117 -10 186 -18 200 -23 8 -4 26 -7 40 -8 14 -1 33 -5 43
-9 9 -5 24 -6 32 -2 8 3 15 1 15 -4 0 -6 15 -10 34 -10 19 0 37 -4 40 -9 4 -5
14 -8 24 -6 9 1 23 -2 29 -7 7 -6 20 -8 28 -4 8 3 15 1 15 -4 0 -6 11 -10 24
-10 14 0 27 -4 31 -10 3 -5 12 -7 20 -3 8 3 15 0 15 -6 0 -6 3 -10 8 -9 12 2
66 -14 80 -25 6 -5 12 -6 12 -2 0 4 7 2 15 -5 8 -7 15 -9 15 -4 0 5 4 4 8 -2
4 -6 41 -24 82 -40 41 -16 77 -32 78 -36 2 -5 8 -6 13 -2 5 3 9 0 9 -5 0 -6 5
-11 11 -11 12 0 122 -52 129 -61 3 -3 15 -9 28 -13 12 -4 22 -12 22 -17 0 -6
5 -7 10 -4 6 3 10 2 10 -2 0 -5 9 -13 20 -18 46 -23 190 -119 190 -126 0 -5 5
-9 11 -9 6 0 26 -12 44 -27 18 -16 55 -46 81 -68 58 -47 273 -262 326 -325 21
-25 51 -61 68 -80 16 -19 30 -40 30 -48 0 -7 5 -10 10 -7 6 3 10 -1 10 -9 0
-9 5 -16 10 -16 6 0 10 -5 10 -10 0 -6 5 -16 11 -23 5 -7 20 -27 32 -46 12
-19 27 -42 32 -50 11 -16 83 -142 113 -196 9 -16 20 -31 25 -33 4 -2 7 -7 7
-12 0 -5 10 -30 22 -57 12 -26 22 -50 23 -53 1 -3 10 -25 21 -50 10 -25 18
-48 16 -52 -1 -5 3 -8 8 -8 6 0 10 -10 10 -22 0 -13 7 -36 15 -52 9 -16 13
-31 10 -34 -3 -3 -1 -10 4 -16 5 -6 15 -31 22 -56 7 -25 14 -49 15 -55 29
-100 46 -164 49 -180 2 -11 9 -45 15 -75 6 -30 13 -80 16 -110 9 -95 11 -534
3 -546 -5 -5 -7 -29 -5 -52 2 -23 -1 -42 -6 -42 -6 0 -8 -7 -4 -15 3 -8 2 -15
-2 -15 -4 0 -7 -15 -8 -32 0 -18 -3 -46 -7 -63 -4 -16 -9 -43 -12 -59 -3 -16
-12 -44 -20 -62 -7 -18 -11 -35 -8 -38 3 -3 1 -12 -5 -19 -7 -8 -9 -17 -5 -20
3 -4 1 -7 -6 -7 -8 0 -11 -8 -8 -20 3 -11 2 -20 -3 -20 -4 0 -11 -15 -15 -32
-4 -18 -9 -35 -10 -38 -1 -3 -7 -18 -14 -35 -7 -16 -14 -38 -16 -48 -8 -37
-146 -307 -172 -335 -6 -6 -15 -21 -18 -32 -3 -11 -11 -20 -16 -20 -6 0 -7 -4
-4 -10 3 -5 1 -10 -5 -10 -6 0 -13 -8 -17 -17 -3 -10 -21 -37 -40 -60 -19 -23
-32 -44 -31 -46 2 -1 -16 -21 -38 -44 -23 -23 -40 -44 -38 -45 3 -4 -235 -238
-272 -268 -14 -12 -143 -107 -199 -148 -6 -4 -26 -16 -45 -26 -19 -11 -37 -22
-40 -25 -9 -11 -145 -76 -152 -73 -5 1 -8 -3 -8 -9 0 -5 -4 -7 -10 -4 -5 3
-10 3 -10 -2 0 -9 -61 -39 -72 -35 -5 1 -8 -2 -8 -6 0 -6 -61 -34 -80 -37 -3
0 -9 -3 -15 -7 -5 -3 -30 -12 -55 -19 -55 -15 -52 -14 -70 -22 -8 -3 -40 -11
-70 -18 -69 -16 -62 -15 -80 -22 -22 -10 -138 -28 -192 -30 -27 -1 -48 -5 -48
-10 0 -4 -15 -7 -32 -7 -18 1 -84 -2 -145 -6 -88 -5 -113 -4 -113 6 0 9 -3 10
-13 1 -8 -6 -16 -8 -20 -5 -3 3 -29 7 -59 10 -88 6 -143 12 -143 14 0 1 -16 4
-35 7 -19 2 -36 8 -38 12 -1 4 -16 6 -32 5 -17 -1 -32 2 -35 6 -3 5 -14 7 -25
5 -11 -2 -20 0 -20 4 0 8 -28 15 -87 23 -7 1 -13 5 -13 9 0 4 -9 6 -20 4 -11
-2 -20 0 -20 6 0 5 -7 9 -16 9 -15 0 -29 5 -109 40 -16 8 -34 12 -39 11 -5 -1
-12 2 -15 6 -3 4 -22 16 -41 26 -99 50 -240 137 -240 149 0 5 -4 7 -8 4 -4 -2
-22 8 -41 24 -18 16 -46 39 -63 52 -31 24 -174 163 -219 214 -31 35 -119 151
-136 179 -7 11 -27 45 -45 75 -17 30 -36 58 -41 61 -5 3 -8 8 -7 10 4 9 -24
59 -32 59 -5 0 -7 4 -3 10 3 5 -6 27 -20 50 -14 22 -23 40 -20 40 3 0 -1 10
-9 23 -8 12 -17 33 -20 47 -3 14 -15 52 -26 85 -12 33 -24 71 -27 85 -3 14 -6
30 -7 35 -2 6 -6 28 -10 50 -4 22 -10 47 -13 55 -13 35 -25 435 -14 455 3 6 6
26 7 45 1 19 7 58 13 85 19 86 22 99 24 118 1 9 4 17 8 17 4 0 10 15 14 33 8
35 11 44 15 52 1 3 3 8 5 13 1 4 7 21 14 37 6 17 17 44 23 60 6 17 17 37 25
46 7 8 13 21 13 27 0 13 81 135 93 140 4 2 7 8 7 14 0 11 95 131 143 180 15
16 230 313 478 661 247 348 459 643 470 657 26 33 24 37 -13 33 -18 -2 -62 -5
-98 -8 -93 -5 -183 -16 -200 -23 -8 -3 -28 -7 -45 -8 -36 -4 -134 -23 -155
-32 -8 -3 -22 -6 -30 -7 -8 -1 -24 -5 -35 -9 -42 -16 -50 -19 -60 -21 -5 -1
-12 -3 -15 -4 -3 -2 -14 -4 -25 -6 -20 -4 -50 -17 -100 -43 -16 -9 -31 -15
-33 -14 -1 1 -19 -5 -40 -14 -20 -10 -39 -18 -42 -19 -20 -6 -66 -31 -71 -38
-3 -5 -10 -9 -15 -9 -12 -1 -58 -21 -64 -28 -3 -4 -21 -12 -40 -20 -19 -8 -41
-20 -48 -27 -7 -7 -34 -25 -60 -40 -26 -15 -53 -33 -62 -41 -8 -7 -53 -40 -98
-74 -46 -33 -86 -67 -89 -74 -3 -8 -10 -14 -15 -14 -9 0 -37 -24 -121 -106
-77 -75 -175 -186 -204 -231 -10 -15 -23 -32 -29 -38 -22 -20 -74 -93 -74
-104 0 -6 -4 -11 -8 -11 -5 0 -16 -15 -25 -32 -9 -18 -26 -49 -38 -68 -31 -54
-83 -154 -84 -163 0 -4 -6 -11 -13 -16 -8 -5 -14 -12 -14 -17 0 -9 -12 -44
-25 -74 -3 -8 -7 -17 -8 -20 -1 -3 -8 -18 -15 -35 -7 -16 -14 -33 -15 -37 -2
-5 -4 -10 -5 -13 -1 -3 -3 -8 -4 -12 -9 -34 -31 -99 -36 -103 -3 -3 -6 -14 -7
-25 -1 -11 -9 -45 -18 -75 -9 -30 -18 -64 -19 -75 -3 -24 -16 -74 -23 -95 -6
-17 -12 -52 -15 -92 -1 -16 -5 -28 -9 -28 -4 0 -7 -21 -8 -47 0 -27 -4 -97 -8
-158 -8 -107 -3 -293 11 -425 4 -36 8 -84 9 -107 1 -24 5 -43 8 -43 3 0 6 -6
7 -12 1 -21 12 -71 22 -103 5 -16 11 -42 13 -57 1 -15 6 -30 10 -34 4 -4 7
-19 7 -34 0 -15 3 -30 7 -34 4 -3 8 -13 10 -21 2 -8 4 -22 6 -30 2 -8 6 -18
10 -21 4 -4 7 -18 7 -30 0 -13 5 -26 10 -29 6 -4 8 -10 5 -15 -3 -4 2 -21 10
-36 8 -16 15 -37 15 -46 0 -10 5 -18 10 -18 6 0 9 -3 8 -7 -3 -13 25 -83 34
-83 4 0 7 -3 6 -7 -1 -5 4 -21 12 -38 41 -94 53 -115 61 -115 6 0 8 -4 4 -9
-3 -5 -1 -12 5 -16 6 -4 8 -11 5 -16 -4 -5 -1 -9 4 -9 6 0 11 -7 11 -15 0 -8
5 -15 10 -15 6 0 9 -3 8 -7 -1 -5 9 -26 23 -48 13 -22 24 -43 24 -46 0 -11 70
-109 78 -109 4 0 7 -5 7 -10 0 -6 26 -45 57 -88 81 -107 81 -107 148 -180 33
-35 64 -70 68 -78 11 -19 56 -64 64 -64 4 0 41 -33 82 -73 90 -85 141 -129
141 -121 0 3 14 -8 30 -25 17 -16 39 -33 50 -36 11 -4 20 -11 20 -16 0 -5 5
-9 11 -9 7 0 20 -10 30 -22 11 -11 19 -17 19 -12 0 5 6 2 13 -6 7 -8 33 -26
60 -40 26 -14 47 -29 47 -34 0 -4 7 -6 14 -3 9 4 17 -1 20 -11 4 -10 16 -18
28 -19 11 -1 24 -6 27 -11 3 -5 33 -22 66 -38 33 -16 62 -31 65 -34 9 -9 85
-44 93 -42 4 1 7 -2 7 -8 0 -5 7 -10 15 -10 8 0 49 -14 92 -31 43 -17 85 -33
93 -34 8 -2 16 -4 18 -5 2 -3 6 -4 47 -14 17 -4 37 -10 45 -13 8 -4 18 -7 23
-8 4 -2 10 -4 15 -5 4 -2 12 -4 17 -5 6 -1 17 -4 25 -8 13 -5 38 -11 90 -24 8
-2 23 -4 33 -5 9 -1 17 -5 17 -8 0 -3 15 -7 33 -8 17 -1 41 -5 52 -9 11 -3 29
-8 40 -9 11 -2 36 -6 55 -9 19 -3 67 -9 105 -11 39 -3 77 -8 85 -11 8 -3 119
-5 245 -5 202 1 302 7 435 27 19 3 46 7 60 9 14 1 34 5 45 9 30 10 77 19 103
20 12 1 22 4 22 9 0 4 6 5 14 2 8 -3 17 -1 21 5 3 6 17 11 31 11 13 0 24 4 24
10 0 5 7 7 16 3 8 -3 25 -1 37 5 18 9 108 36 152 47 6 1 24 8 40 14 17 7 35
14 40 15 6 1 16 5 23 9 6 5 17 5 22 2 6 -3 10 -2 10 4 0 6 16 13 35 17 19 3
35 10 35 15 0 5 3 8 8 7 11 -3 146 64 154 76 4 6 8 7 8 2 0 -5 6 -3 13 3 8 6
17 8 20 4 4 -3 7 -1 7 5 0 7 7 12 15 12 8 0 15 5 15 10 0 6 3 9 8 8 10 -2 66
25 74 37 4 5 8 6 8 2 0 -4 19 5 43 21 23 16 50 31 60 35 9 4 17 11 17 17 0 6
5 8 10 5 6 -3 10 -1 10 4 0 6 6 11 13 11 8 0 21 8 30 18 9 9 33 26 53 37 21
11 50 31 64 44 14 12 37 29 53 37 15 8 27 19 27 24 0 5 8 11 18 14 9 3 34 22
55 42 20 19 37 33 37 31 0 -3 22 18 50 45 28 27 50 47 50 44 0 -3 33 28 73 68
83 86 185 196 180 196 -1 0 5 8 14 18 19 19 76 85 105 121 10 11 15 21 12 21
-3 0 11 19 30 42 20 23 36 47 36 54 0 7 3 14 8 16 22 10 106 145 207 333 12
22 28 51 35 65 8 14 15 27 15 30 3 10 26 66 40 95 12 27 26 62 29 75 1 3 7 14
12 25 6 11 15 34 19 50 10 35 10 35 18 55 22 53 75 220 70 220 -3 0 -1 6 4 13
6 6 9 22 8 35 -1 12 2 22 7 22 5 0 8 6 7 12 -1 7 0 20 4 28 13 35 21 77 41
205 8 50 15 90 16 90 1 0 4 20 6 45 2 25 7 81 11 125 12 144 8 645 -6 645 -4
0 -6 21 -5 48 1 26 -2 52 -6 57 -4 6 -8 25 -8 43 0 17 -4 42 -8 55 -4 12 -6
34 -5 50 1 15 -1 27 -6 27 -5 0 -9 10 -10 23 0 20 -26 143 -39 192 -3 11 -8
32 -11 48 -3 15 -8 27 -12 27 -4 0 -7 8 -8 18 -1 9 -12 47 -26 85 -14 37 -23
67 -20 67 3 0 1 6 -4 13 -6 6 -16 33 -24 60 -7 26 -17 47 -22 47 -4 0 -7 8 -6
18 1 9 -3 30 -9 45 -7 16 -12 33 -12 38 0 5 -4 9 -10 9 -5 0 -9 3 -8 8 2 8 -8
30 -61 142 -19 41 -41 82 -49 92 -7 9 -15 24 -16 33 -1 9 -9 24 -17 33 -8 9
-15 20 -17 25 -3 13 -35 72 -41 77 -6 5 -32 49 -53 90 -7 14 -21 34 -30 44
-10 11 -18 25 -18 32 0 7 -4 14 -8 16 -4 2 -32 39 -62 83 -68 100 -69 101
-102 136 -16 15 -28 31 -28 35 0 4 -13 19 -29 34 -16 16 -30 33 -32 39 -9 24
-237 261 -336 347 -32 29 -77 68 -99 88 -23 20 -47 36 -53 36 -6 0 -11 4 -11
9 0 5 -37 35 -82 68 -45 32 -90 66 -100 76 -10 9 -22 17 -27 17 -5 0 -14 7
-21 15 -7 9 -15 13 -17 11 -5 -5 -15 2 -47 31 -8 7 -16 9 -20 6 -3 -4 -6 -2
-6 4 0 10 -49 38 -62 35 -5 -1 -8 2 -8 8 0 5 -7 10 -15 10 -8 0 -15 3 -15 8 0
4 -21 18 -47 32 -27 13 -50 27 -53 30 -10 11 -84 45 -92 43 -4 -2 -8 2 -8 7 0
6 -4 10 -10 10 -5 0 -37 13 -70 29 -33 16 -60 27 -60 24 0 -3 -6 0 -13 6 -8 6
-17 8 -20 4 -4 -3 -7 -1 -7 5 0 7 -5 12 -11 12 -6 0 -27 7 -47 16 -21 9 -46
20 -57 24 -11 5 -46 20 -77 34 -32 14 -58 22 -58 19 0 -3 -6 0 -13 6 -8 6 -17
8 -20 4 -4 -3 -12 -1 -19 4 -7 6 -29 14 -48 18 -19 4 -39 10 -45 13 -11 7 -26
10 -63 16 -12 1 -25 6 -29 9 -3 4 -17 7 -30 7 -13 0 -23 4 -23 8 0 5 -10 8
-22 7 -13 -1 -29 2 -35 8 -7 5 -13 7 -13 4 0 -3 -15 -1 -32 5 -18 5 -43 10
-55 9 -12 0 -24 3 -28 8 -3 5 -14 7 -25 4 -11 -3 -26 -1 -33 4 -6 6 -28 9 -47
9 -19 -1 -40 1 -46 6 -14 10 -79 21 -126 21 -21 1 -38 3 -38 7 0 19 -726 16
-805 -3 -11 -3 -45 -8 -75 -12 -63 -8 -95 -13 -95 -15 0 -2 -68 -11 -97 -12
-16 -1 -28 -5 -28 -9 0 -6 -53 -17 -100 -20 -8 0 -22 -3 -30 -6 -17 -7 -17 -7
-95 -23 -33 -7 -65 -16 -72 -22 -6 -5 -17 -8 -25 -7 -7 1 -20 -1 -28 -4 -13
-5 -85 -26 -115 -33 -5 -1 -23 -8 -40 -15 -16 -7 -33 -12 -37 -11 -5 1 -8 -2
-8 -7 0 -5 -7 -8 -17 -7 -9 2 -35 -6 -57 -17 -23 -11 -47 -20 -53 -20 -7 0
-13 -4 -13 -9 0 -4 -4 -8 -9 -8 -5 0 -22 -5 -38 -12 -15 -6 -30 -12 -33 -12
-3 -1 -11 -5 -18 -10 -7 -4 -16 -6 -19 -3 -2 3 -13 -2 -23 -11 -11 -8 -25 -17
-32 -18 -16 -2 -171 -75 -178 -83 -3 -3 -30 -18 -60 -33 -51 -25 -78 -40 -140
-77 -14 -9 -28 -16 -32 -16 -3 0 -17 -9 -30 -20 -13 -11 -37 -27 -53 -35 -17
-8 -34 -21 -38 -28 -5 -7 -12 -10 -18 -7 -5 4 -9 1 -9 -4 0 -6 -5 -11 -10 -11
-6 0 -23 -11 -38 -25 -15 -14 -32 -25 -39 -25 -7 0 -13 -4 -13 -8 0 -5 -12
-15 -27 -23 -16 -7 -40 -23 -54 -34 -80 -61 -93 -72 -115 -93 -13 -13 -24 -20
-24 -17 0 3 -21 -13 -46 -37 -25 -24 -49 -44 -54 -46 -5 -2 -37 -31 -72 -65
-35 -34 -91 -87 -126 -118 -34 -31 -62 -60 -62 -65 0 -4 -24 -31 -52 -59 -29
-28 -73 -75 -98 -105 -53 -64 -90 -108 -107 -126 -7 -7 -13 -17 -13 -23 0 -6
-3 -11 -7 -11 -5 0 -24 -24 -43 -53 -19 -28 -41 -56 -47 -60 -7 -4 -13 -15
-13 -22 0 -8 -4 -15 -9 -15 -5 0 -14 -13 -21 -30 -7 -16 -16 -30 -20 -30 -4 0
-13 -13 -20 -30 -7 -16 -16 -30 -21 -30 -5 0 -9 -4 -9 -9 0 -6 -13 -30 -30
-54 -16 -25 -30 -48 -30 -51 0 -3 -16 -29 -35 -56 -19 -28 -33 -50 -30 -50 3
0 -6 -18 -20 -40 -14 -22 -25 -42 -25 -45 0 -3 -32 -69 -70 -146 -39 -77 -70
-146 -70 -154 0 -8 -5 -15 -11 -15 -6 0 -9 -7 -5 -15 3 -8 1 -15 -4 -15 -6 0
-10 -8 -10 -17 0 -10 -7 -31 -15 -47 -17 -32 -50 -137 -47 -148 1 -5 -2 -8 -8
-8 -5 0 -10 -8 -10 -19 0 -10 -7 -35 -15 -55 -8 -20 -15 -37 -14 -38 1 -2 -9
-34 -21 -73 -12 -38 -23 -77 -25 -85 -3 -8 -9 -33 -15 -55 -6 -22 -12 -49 -15
-60 -2 -11 -11 -56 -20 -100 -9 -44 -18 -91 -19 -105 -2 -14 -5 -25 -6 -25 -1
0 -4 -18 -5 -40 -1 -22 -5 -47 -8 -55 -6 -16 -15 -92 -24 -195 -3 -33 -6 -113
-6 -177 -1 -65 -6 -118 -10 -118 -10 0 -8 -209 2 -214 4 -3 6 -52 4 -110 -1
-58 1 -106 5 -106 5 0 9 -24 10 -52 2 -91 14 -198 22 -198 4 0 6 -16 3 -35 -2
-19 0 -35 5 -35 5 0 8 -15 7 -33 -1 -17 3 -38 8 -45 5 -7 7 -15 5 -18 -3 -3
-2 -22 4 -42 5 -20 11 -48 13 -62 10 -60 13 -75 15 -77 3 -4 5 -13 15 -58 4
-22 10 -44 14 -50 3 -5 7 -19 8 -30 2 -11 6 -27 10 -35 3 -8 7 -21 9 -28 1 -8
6 -21 10 -30 8 -18 14 -39 18 -62 2 -8 6 -23 10 -32 9 -25 17 -53 16 -53 0 0
9 -27 20 -60 12 -33 23 -64 24 -70 3 -9 18 -50 33 -85 3 -8 8 -23 9 -32 2 -9
12 -33 23 -52 11 -19 21 -43 23 -53 2 -10 6 -20 9 -23 6 -4 71 -137 74 -150 0
-3 9 -21 20 -40 11 -19 19 -37 20 -40 1 -13 99 -186 109 -192 6 -4 7 -8 3 -8
-5 0 1 -13 12 -29 12 -16 21 -34 21 -40 0 -6 4 -11 9 -11 5 0 14 -14 21 -30 7
-17 17 -30 22 -30 6 0 8 -6 5 -14 -3 -8 1 -17 9 -20 8 -3 14 -10 14 -16 0 -11
71 -113 82 -118 5 -2 8 -10 8 -17 0 -7 3 -15 8 -17 4 -2 29 -34 56 -73 27 -38
54 -74 60 -80 6 -5 24 -28 40 -49 16 -22 48 -60 70 -86 23 -26 59 -69 81 -96
40 -49 279 -291 348 -351 20 -18 41 -33 47 -33 5 0 10 -6 10 -14 0 -8 8 -17
19 -21 10 -3 30 -18 44 -33 14 -15 42 -38 62 -52 20 -14 47 -35 60 -47 13 -13
28 -23 34 -23 5 0 11 -4 13 -8 2 -4 25 -23 53 -42 64 -45 73 -52 96 -73 10 -9
22 -17 26 -17 3 0 21 -11 39 -25 18 -14 37 -25 43 -25 5 0 15 -8 20 -18 6 -9
11 -14 11 -10 0 11 100 -52 100 -63 0 -4 7 -6 15 -3 8 4 15 1 15 -4 0 -10 65
-46 265 -146 55 -27 102 -53 103 -58 2 -4 11 -8 19 -8 8 0 38 -11 65 -25 27
-14 54 -23 59 -19 5 3 9 1 9 -4 0 -9 48 -26 59 -22 2 1 7 -2 10 -7 6 -7 86
-39 122 -47 8 -2 32 -11 52 -20 20 -8 37 -12 37 -9 0 3 7 0 15 -7 9 -7 18 -10
22 -7 3 3 18 0 34 -8 15 -8 36 -17 46 -18 10 -2 25 -7 33 -10 56 -22 118 -40
138 -38 12 0 22 -3 22 -8 0 -5 21 -12 47 -16 27 -5 53 -9 58 -11 41 -10 74
-17 100 -21 17 -2 37 -7 45 -10 8 -4 21 -5 29 -4 7 1 20 -1 30 -5 9 -3 27 -8
41 -10 14 -2 45 -6 70 -9 25 -3 77 -10 115 -16 39 -6 91 -12 118 -12 26 -1 47
-4 47 -7 0 -7 144 -12 405 -12 244 -1 418 9 590 33 44 6 90 10 103 10 12 0 22
3 22 7 0 5 20 8 45 8 25 -1 45 2 45 7 0 4 16 7 35 7 19 0 35 3 35 8 0 4 15 7
33 8 17 1 43 4 57 8 14 4 39 9 55 11 17 2 45 8 63 14 17 5 32 7 32 3 0 -4 4
-2 8 5 4 7 23 14 42 17 19 2 47 9 63 15 15 6 27 8 27 5 0 -4 6 -1 13 5 8 6 17
8 20 4 4 -3 7 -1 7 5 0 7 3 11 8 10 9 -2 63 13 77 21 10 5 23 9 55 15 21 4 52
16 73 27 10 5 22 7 27 4 6 -4 10 -2 10 4 0 5 15 13 33 16 17 4 38 12 45 17 6
6 12 7 12 3 0 -4 7 -1 17 6 9 8 17 13 17 11 1 -2 15 2 31 9 17 7 36 11 43 10
6 -1 12 3 12 10 0 6 7 9 15 5 8 -3 15 -2 15 2 0 4 27 18 60 32 33 14 60 27 60
30 0 3 10 7 22 7 13 1 24 7 26 13 2 5 8 10 14 10 6 0 59 24 119 54 59 30 110
51 113 48 3 -3 6 -1 6 5 0 5 29 25 65 44 36 18 65 37 65 40 0 4 11 10 25 13
14 4 25 11 25 17 0 6 5 7 10 4 6 -3 10 -1 10 4 0 6 5 11 11 11 6 0 24 9 40 21
16 11 29 17 29 13 0 -4 6 -1 13 8 6 8 62 48 122 88 61 40 120 82 133 93 12 11
22 16 22 11 0 -5 4 -4 8 2 4 6 38 35 77 65 79 60 107 83 146 121 15 14 30 24
32 21 6 -5 466 450 523 518 21 26 53 64 69 85 17 21 44 54 60 74 17 20 39 49
50 64 11 15 40 53 64 84 57 74 141 201 141 213 0 5 5 9 10 9 6 0 10 6 10 14 0
8 6 21 14 28 7 8 21 30 31 48 10 19 21 37 25 40 4 3 15 21 25 40 10 19 21 37
24 40 4 3 20 32 36 65 16 33 39 76 52 96 12 20 19 40 16 43 -4 3 -1 6 5 6 7 0
12 6 12 14 0 8 7 21 15 30 8 8 16 23 18 34 1 10 11 32 22 48 11 16 20 34 21
39 1 6 16 41 33 77 17 37 31 74 31 83 0 8 5 15 11 15 5 0 8 4 4 10 -3 5 -1 17
4 27 15 27 51 114 51 124 0 4 5 20 12 36 6 15 11 31 10 36 -1 4 3 7 10 7 6 0
8 3 5 7 -4 3 -2 12 4 20 6 7 8 13 4 13 -4 0 -3 6 2 13 12 15 27 67 24 84 -1 7
2 13 7 13 6 0 13 20 16 45 4 24 11 47 16 50 5 3 9 13 10 23 2 52 6 72 11 72 7
0 23 60 20 74 -1 6 2 19 8 30 12 24 31 117 33 159 1 15 5 27 9 27 3 0 10 28
14 62 8 62 11 76 15 81 3 4 11 41 15 72 2 17 8 66 14 110 11 84 17 140 28 290
8 118 8 575 0 690 -4 50 -8 117 -10 150 -2 33 -6 65 -9 70 -3 6 -9 41 -13 79
-3 38 -9 74 -12 80 -4 6 -8 26 -9 46 -1 19 -4 42 -7 50 -2 8 -10 44 -16 80
-15 79 -17 92 -32 155 -6 28 -11 58 -11 68 1 9 -3 17 -7 17 -5 0 -7 14 -6 30
1 17 -1 30 -6 30 -5 0 -9 11 -9 25 0 14 -4 25 -10 25 -5 0 -7 7 -4 15 4 8 3
23 -1 33 -4 9 -9 24 -11 32 -1 8 -10 40 -19 70 -9 30 -17 63 -18 73 -1 9 -5
17 -9 17 -4 0 -10 16 -14 35 -3 19 -10 35 -14 35 -4 0 -6 11 -5 24 2 14 -3 27
-10 30 -7 2 -16 20 -20 38 -6 31 -24 82 -48 138 -6 14 -12 30 -13 35 -5 28
-17 55 -24 55 -5 0 -6 9 -3 20 3 11 0 20 -6 20 -6 0 -11 7 -11 15 0 8 -4 23
-9 33 -5 9 -20 41 -32 70 -12 28 -26 52 -31 52 -4 0 -7 3 -6 8 1 4 -15 42 -35
85 -20 42 -36 80 -36 84 0 3 -3 9 -8 12 -4 3 -26 42 -47 86 -22 44 -52 98 -66
120 -15 22 -37 58 -49 80 -23 43 -27 50 -84 140 -53 84 -50 80 -127 188 -39
54 -70 100 -70 103 0 3 -20 29 -45 58 -5 6 -30 38 -55 71 -42 56 -58 77 -105
131 -11 13 -36 42 -55 66 -88 106 -454 478 -471 478 -4 0 -29 23 -57 50 -28
28 -53 50 -56 50 -6 0 -48 35 -100 84 -17 16 -33 29 -36 28 -3 -1 -13 5 -23
13 -9 8 -19 15 -22 15 -3 0 -15 9 -27 19 -70 60 -84 71 -90 71 -4 0 -13 6 -20
13 -23 23 -106 77 -118 77 -6 0 -9 4 -5 9 3 5 -4 13 -16 16 -11 4 -60 33 -109
66 -48 32 -93 59 -99 59 -5 0 -15 8 -20 18 -6 9 -11 14 -11 9 0 -4 -18 4 -40
18 -22 14 -40 22 -40 18 0 -5 -4 -3 -8 3 -6 10 -69 47 -82 49 -10 1 -105 59
-111 68 -3 5 -8 7 -11 5 -6 -4 -81 34 -89 45 -3 5 -10 9 -15 9 -5 0 -20 4 -34
9 -50 19 -55 20 -59 19 -2 -1 -7 2 -10 7 -8 12 -211 92 -211 84z"/>
</g>
</svg>
